<svg width="407" height="248" viewBox="0 0 407 248" fill="none" xmlns="http://www.w3.org/2000/svg">
<g clip-path="url(#clip0_28_5)">
<path d="M276.902 33.7631H215.773H147.457H79.2348H53.5698C51.9079 33.8058 50.2528 33.9931 48.6234 34.3227C48.1982 34.422 47.801 34.6162 47.4616 34.8908C47.1221 35.1654 46.8493 35.5133 46.6636 35.9082C46.6636 37.7736 45.8236 39.5457 45.357 41.4111L43.3971 50.7379C42.8371 53.5359 42.3705 56.2407 41.7172 59.0387C41.0639 61.8368 40.4106 64.9146 39.8507 68.3655C39.2907 71.8165 38.2641 73.6818 37.3308 76.4799C37.3308 77.226 37.3308 77.5991 38.2641 77.5991H41.9972C44.8903 77.5991 47.7835 77.5991 50.6766 77.5991C53.485 77.8534 56.2469 78.4807 58.8894 79.4645C60.976 80.2043 62.9298 81.275 64.6757 82.6356C67.2516 84.7255 69.0577 87.6134 69.8087 90.8432C70.7869 94.8888 70.7869 99.109 69.8087 103.155C68.7821 108.564 67.7555 113.974 66.6356 119.476C65.7956 123.58 64.8624 127.684 64.0224 131.788C63.4625 134.306 63.0892 136.918 62.4359 139.436C62.0176 141.25 61.4559 143.027 60.756 144.752C59.5257 148.16 57.6922 151.319 55.343 154.079C53.2012 156.899 50.4179 159.169 47.2235 160.701C44.5022 161.981 41.6957 163.072 38.8241 163.965C36.2525 164.603 33.6288 165.009 30.9846 165.178C28.5913 165.319 26.1917 165.319 23.7984 165.178C19.3567 165.137 14.9601 164.283 10.8259 162.66C6.84564 161.253 3.52321 158.431 1.49318 154.732C-0.00954949 151.867 -0.626735 148.621 -0.280034 145.405C-0.280034 142.607 0.373257 139.809 0.839893 137.011C1.30653 134.213 1.95982 130.762 2.61311 127.684L5.50625 116.585C6.15954 113.694 6.62618 110.709 7.27947 107.818C7.27947 106.699 7.27947 105.486 8.02609 104.367C9.23934 98.6777 10.4526 92.8951 11.5725 87.2057C12.4125 83.2885 13.3457 79.2779 14.0924 75.3607C14.839 71.4434 15.2123 69.2982 15.8656 66.0338C16.5189 62.7695 16.9855 61.0906 17.4521 58.6657C17.9188 56.2407 18.7587 52.883 19.3187 49.9917C19.8786 47.1004 20.4386 44.5822 21.0919 41.9707C21.7452 39.3592 22.2118 36.8409 22.9584 34.3227C24.0331 28.9005 27.0534 24.0577 31.4512 20.7055C34.82 18.4808 38.6486 17.046 42.6505 16.5085C47.0858 16.0805 51.547 15.987 55.9963 16.2287H212.506C214.279 16.2287 214.279 16.2287 214.653 14.4566C215.306 11.0989 215.866 7.64799 216.519 4.29033C216.519 3.07785 216.986 1.86536 217.266 0.652875C217.546 -0.559611 217.919 -0.0932703 218.479 0.652875L225.572 4.57014L238.731 12.1249L255.717 21.4517L272.889 30.7785L276.902 33.1102V33.7631ZM29.958 148.669C31.0849 148.731 32.2116 148.546 33.2595 148.127C34.3073 147.709 35.2509 147.066 36.0243 146.244C37.112 144.721 37.9909 143.058 38.6374 141.301C39.384 139.063 39.664 136.545 40.224 134.213C41.3439 129.083 42.4638 124.047 43.4904 118.917C44.517 113.787 45.8236 107.258 46.8502 101.382C47.1069 100.129 46.9662 98.8262 46.4476 97.656C45.9291 96.4859 45.0586 95.5064 43.9571 94.8537C42.0274 94.1555 39.9138 94.1555 37.9841 94.8537C36.9467 95.2311 36.0019 95.8258 35.2132 96.5979C34.4245 97.3701 33.8101 98.3018 33.4111 99.3306C32.6983 101.139 32.1669 103.013 31.8245 104.927C31.0779 108.005 30.518 111.082 29.8647 114.253L27.9981 122.181L26.2249 130.575C25.5716 133.467 24.9183 136.358 24.3584 139.249C24.2618 140.429 24.2618 141.614 24.3584 142.794C24.3547 143.845 24.5445 144.888 24.9183 145.871C25.5716 148.296 27.9981 148.576 29.958 148.669Z" fill="#1B5F2C"/>
<path d="M78.5814 180.381H79.608C121.419 180.381 163.603 180.381 205.133 180.381H302.287C303.871 180.367 305.444 180.116 306.953 179.634C308.633 179.075 308.82 177.303 309.1 175.81C310.033 171.427 310.873 167.137 311.806 162.753L313.206 155.571C313.206 155.571 313.206 155.571 313.206 154.732C313.206 153.892 312.366 155.385 312.179 155.758C308.945 159.638 304.721 162.57 299.954 164.245C297.061 165.006 294.044 165.164 291.088 164.712C288.235 164.445 285.47 163.587 282.968 162.193C281.583 161.41 280.393 160.323 279.488 159.015C278.583 157.706 277.986 156.21 277.742 154.639C277.347 150.433 277.759 146.192 278.955 142.141C279.515 139.529 280.075 136.918 280.542 134.306C281.008 131.695 281.941 127.871 282.595 124.979C283.248 122.088 284.088 117.518 284.928 113.787L286.888 104.46L289.314 93.2681C289.968 90.097 290.714 86.8326 291.367 83.9413C291.367 82.7288 291.927 81.4231 292.114 80.1173C292.125 79.9369 292.173 79.7608 292.256 79.6C292.339 79.4393 292.454 79.2974 292.594 79.1834C292.735 79.0695 292.897 78.9859 293.072 78.9379C293.246 78.8899 293.428 78.8787 293.607 78.9049H314.793C316.006 78.9049 316.193 78.9049 316.006 80.3971L313.019 93.2681L309.94 108.284C309.38 111.269 308.633 114.253 308.073 117.611C307.513 120.969 306.486 125.259 305.74 129.083C304.993 132.907 304.34 135.146 303.78 138.41C303.43 139.401 303.298 140.456 303.395 141.502C303.492 142.549 303.814 143.562 304.34 144.472C304.763 145 305.357 145.363 306.02 145.498C308.059 145.994 310.211 145.69 312.034 144.649C313.856 143.608 315.211 141.91 315.819 139.902C316.379 137.104 317.126 134.399 317.779 131.601C318.432 128.803 319.366 123.674 320.206 119.663L322.165 110.336C323.192 105.3 324.312 100.17 325.432 95.1335L327.112 86.5528C327.578 84.5009 327.952 82.3558 328.512 80.3039C328.592 80.0851 328.73 79.8919 328.911 79.7443C329.091 79.5967 329.308 79.5001 329.538 79.4645H351.377C352.59 79.4645 352.963 80.1173 352.683 81.2366C351.657 86.5528 350.444 91.7759 349.417 97.0921L346.337 111.922C345.311 117.052 344.191 122.275 343.164 127.404C342.137 132.534 341.018 138.13 339.991 143.446C339.338 146.431 338.684 149.322 338.124 152.307C337.564 155.291 337.005 157.996 336.351 160.888C335.698 163.779 334.858 168.162 334.018 171.8C333.178 175.437 332.525 178.142 331.498 181.127C330.805 183.915 329.544 186.53 327.793 188.808C326.043 191.087 323.841 192.981 321.326 194.371C318.426 195.901 315.256 196.852 311.993 197.169C308.073 197.169 304.06 197.728 300.047 197.728H143.444C140.644 197.728 140.644 197.728 140.084 200.34L137.844 212.558C137.844 213.491 137.191 213.491 136.538 213.118L126.365 207.428L109.006 198.102L94.2604 189.801L79.888 181.78L78.3948 180.754L78.5814 180.381Z" fill="#5AB24A"/>
<path d="M187.121 97.6517C186.468 101.569 185.814 105.486 185.068 109.31C184.321 113.134 183.481 117.145 182.735 121.062L180.775 130.389C180.215 132.907 179.842 135.519 179.188 138.037C178.535 140.555 177.322 144.472 176.108 147.364C174.837 150.366 173.035 153.114 170.789 155.478C168.371 158.046 165.49 160.135 162.296 161.634C157.943 163.683 153.272 164.976 148.484 165.458C143.597 166.204 138.625 166.204 133.738 165.458C128.783 164.614 124.233 162.193 120.765 158.556C119.337 157.121 118.207 155.418 117.438 153.546C116.669 151.673 116.278 149.667 116.286 147.643C116.239 143.559 116.709 139.485 117.686 135.519C118.432 132.534 118.806 129.549 119.459 126.192C120.112 122.834 120.672 120.782 121.232 118.077C121.792 115.373 122.259 112.761 122.819 110.15L125.618 98.771C126.903 94.408 129.206 90.4122 132.338 87.1124C134.924 84.2229 138.108 81.9313 141.671 80.3971C144.877 78.9235 148.267 77.8882 151.75 77.3193C156.981 76.5756 162.291 76.5756 167.522 77.3193C172.347 77.537 176.995 79.1937 180.868 82.076C183.368 83.8988 185.151 86.5385 185.908 89.5374C186.654 92.522 186.654 95.0402 187.121 97.6517ZM157.163 94.2941C156.151 94.3818 155.151 94.5692 154.177 94.8537C152.953 95.2944 151.856 96.0254 150.978 96.984C150.1 97.9426 149.468 99.0999 149.137 100.357C147.924 104.087 147.177 108.005 146.337 111.828C145.497 115.652 145.31 117.052 144.75 119.663C144.191 122.275 143.817 123.58 143.444 125.539C143.071 127.498 142.231 131.042 141.671 133.84C141.111 136.638 140.457 139.622 139.991 142.514C139.806 143.623 139.977 144.761 140.48 145.767C140.983 146.772 141.792 147.593 142.791 148.11C144.816 148.947 147.084 148.978 149.131 148.198C151.179 147.418 152.85 145.885 153.803 143.913C155.087 140.708 155.965 137.355 156.416 133.933C157.07 131.228 157.536 128.43 158.096 125.632L160.056 116.305C160.709 113.414 161.456 110.616 161.923 107.725C162.785 105.016 163.102 102.163 162.856 99.3306C162.661 97.9985 162.113 96.7427 161.269 95.6931C160.336 94.3874 158.656 94.3874 157.163 94.2941Z" fill="#1B5F2C"/>
<path d="M204.666 163.219H194.214C192.907 163.219 192.627 163.219 192.907 161.634C193.934 156.597 195.054 151.467 196.174 146.338L199.253 130.575C200.093 126.565 201.027 122.648 201.867 118.637C202.707 114.627 203.453 110.709 204.2 106.699C204.946 102.688 205.413 101.196 205.973 98.4912C206.533 95.7864 206.44 96.6258 204.48 96.6258H198.414C197.107 96.6258 196.827 96.6258 197.107 95.1335C197.947 91.123 198.787 87.1124 199.72 83.0086C199.72 82.1692 199.72 81.3298 200.187 80.4904C200.653 79.651 200.84 79.2779 201.773 79.2779H208.68C208.846 79.3042 209.016 79.2955 209.18 79.2523C209.343 79.2091 209.495 79.1324 209.627 79.0271C209.758 78.9217 209.867 78.7901 209.945 78.6406C210.023 78.4911 210.069 78.327 210.079 78.1587C210.801 74.4002 211.768 70.6927 212.973 67.0598C214.19 62.6483 216.81 58.7525 220.439 55.9609C222.247 54.6918 224.227 53.6868 226.318 52.9763C232.786 51.0383 239.563 50.3421 246.29 50.9244H248.624C249.557 50.9244 249.837 50.9244 249.65 52.2302C249.464 53.5359 248.81 56.4272 248.344 58.4791L246.664 66.78C246.664 67.8992 246.01 68.2723 244.891 68.2723C242.746 68.133 240.595 68.133 238.451 68.2723C237.715 68.3382 237.027 68.6666 236.513 69.1974C235.999 69.7282 235.693 70.4261 235.651 71.1636L234.251 77.7856C234.251 78.625 234.251 78.9048 235.184 78.9048H242.651C244.144 78.9048 244.237 78.9048 243.957 80.4904C243.677 82.076 242.837 85.9 242.371 88.5115C241.904 91.123 241.344 93.1749 240.784 95.4133C240.784 95.4133 239.944 96.1595 239.478 96.1595H232.291C230.611 96.1595 230.425 96.1595 230.145 97.9315C229.585 100.916 228.932 103.807 228.278 106.792L226.598 115.466L224.918 123.207C224.079 127.498 223.145 131.788 222.305 136.078L219.785 147.83C218.946 151.747 218.199 155.758 217.359 159.675C217.359 159.675 217.359 160.421 217.359 160.794C217.359 161.167 216.799 162.473 215.119 162.473L204.666 163.219Z" fill="#5AB24A"/>
<path d="M397.574 96.8123H393.187C392.893 96.782 392.598 96.86 392.358 97.0318C392.117 97.2035 391.948 97.4571 391.881 97.745C391.881 99.0508 391.228 100.357 390.948 101.662C390.108 105.58 389.361 109.59 388.521 113.507C387.681 117.425 387.214 119.476 386.655 122.834C386.095 126.192 385.068 130.389 384.321 134.213C383.575 138.037 383.295 139.343 382.828 141.861C382.782 142.731 382.782 143.602 382.828 144.472C382.827 144.902 382.992 145.315 383.287 145.628C383.582 145.94 383.985 146.127 384.415 146.151C385.657 146.248 386.905 146.248 388.148 146.151H391.974C392.907 146.151 393.001 146.804 392.814 147.457C392.627 148.11 392.254 150.255 391.974 151.654C391.321 155.105 390.574 158.463 389.921 161.914C389.878 162.261 389.714 162.582 389.458 162.82C389.202 163.059 388.871 163.2 388.521 163.219C383.481 163.219 378.348 164.152 373.309 164.338C370.082 164.483 366.872 163.809 363.976 162.38C361.438 161.046 359.528 158.768 358.656 156.038C357.628 152.124 357.628 148.012 358.656 144.099C359.496 139.995 360.243 135.985 361.083 131.974C361.923 127.964 362.669 124.42 363.509 120.596L366.029 108.378C366.589 105.486 367.242 102.595 367.896 99.7036C367.896 97.4652 367.896 97.2787 366.029 97.3719H360.15C359.03 97.3719 358.936 97.3719 359.216 96.0662L360.896 87.9519C360.896 85.5269 361.829 83.1952 362.483 80.7702C362.613 80.5599 362.79 80.383 363.001 80.2534C363.212 80.1238 363.45 80.0453 363.696 80.0241H370.322C371.909 80.0241 372.095 80.0241 372.375 78.252C372.588 76.6179 372.899 74.9982 373.309 73.402C374.335 68.0857 375.549 62.8627 376.575 57.6397C376.549 57.4363 376.566 57.2297 376.623 57.0329C376.68 56.836 376.778 56.6531 376.909 56.4956C377.041 56.3381 377.203 56.2093 377.386 56.1173C377.57 56.0253 377.77 55.9721 377.975 55.9609H399.067C400.28 55.9609 400.467 55.9609 400.187 57.3599L396.267 76.4799C396.167 77.0838 396.011 77.6771 395.801 78.252C395.801 79.0914 395.801 79.4645 396.921 79.4645H405.32C406.907 79.4645 406.907 79.4645 406.627 81.05C405.787 84.9673 405.04 88.9778 404.2 92.8951C404.04 93.9711 403.79 95.0318 403.453 96.0662C403.345 96.2746 403.185 96.4522 402.989 96.5826C402.793 96.713 402.568 96.792 402.334 96.8123H397.574Z" fill="#5AB24A"/>
<path d="M249.65 163.219H239.011C237.798 163.219 237.611 163.219 237.798 161.914C238.264 159.115 238.918 156.317 239.478 153.613C240.038 150.908 240.691 147.83 241.251 144.939C241.811 142.047 243.024 136.451 243.864 132.254C244.704 128.057 245.544 123.953 246.384 119.756C247.224 115.559 248.157 111.829 248.997 107.818L250.677 99.0508C251.237 96.2527 251.89 93.5479 252.45 90.7499L254.13 82.7288L256.09 73.402L257.77 65.2877L259.73 55.9609L260.57 52.1369C260.581 51.9775 260.625 51.822 260.697 51.6794C260.769 51.5367 260.869 51.4097 260.99 51.3057C261.111 51.2017 261.252 51.1227 261.404 51.0733C261.556 51.0238 261.717 51.0049 261.876 51.0177H283.155C284.275 51.0177 284.461 51.0177 284.275 52.4167C283.715 55.308 283.061 58.2926 282.502 61.1839C281.942 64.0752 281.288 67.2463 280.635 70.5107L278.955 78.7183C278.302 81.7029 277.742 84.7807 277.089 88.0451L275.409 96.2527C274.755 99.2373 274.195 102.222 273.542 105.58L270.649 116.678L268.969 124.979C268.409 127.964 267.756 130.855 267.196 133.84C266.636 136.824 265.516 142.141 264.583 146.244C263.649 150.348 263.369 152.027 262.809 154.918C262.249 157.81 261.783 159.582 261.41 161.82C261.398 162.037 261.343 162.249 261.246 162.444C261.149 162.639 261.013 162.811 260.847 162.951C260.681 163.091 260.488 163.195 260.279 163.257C260.071 163.32 259.852 163.338 259.636 163.313L249.65 163.219Z" fill="#5AB24A"/>
<path d="M85.2077 163.033H74.6617C73.3552 163.033 73.2618 163.033 73.5418 161.727C74.2884 157.623 75.1284 153.613 75.9683 149.602C76.8083 145.592 77.1816 143.54 77.8349 140.275C78.4882 137.011 79.0481 134.399 79.7014 131.508C80.3547 128.617 80.8213 125.632 81.4746 122.741C82.1279 119.85 82.5946 117.145 83.2478 114.44L84.9277 106.232C85.7677 102.035 86.701 97.8383 87.5409 93.6412C88.3808 89.4441 88.7541 87.6721 89.3141 84.3144C89.3141 82.8221 89.9674 81.4231 90.2474 80.0241C90.2582 79.868 90.3016 79.7158 90.3749 79.5775C90.4481 79.4393 90.5496 79.3178 90.6727 79.2212C90.7959 79.1245 90.9379 79.0547 91.0897 79.0163C91.2415 78.9778 91.3996 78.9717 91.554 78.9981H113.019C113.952 78.9981 114.046 78.9981 113.859 80.1173C113.206 83.475 112.553 86.8326 111.806 90.1903L109.379 102.595L107.7 111.269C107.14 113.974 106.486 116.678 105.926 119.29C105.366 121.901 104.713 125.073 104.153 127.871C103.593 130.669 102.94 133.747 102.38 136.638C101.82 139.529 101.167 142.42 100.607 145.312C100.047 148.203 99.3935 151.001 98.7402 153.892L97.0603 161.913C97.0603 162.846 96.5936 163.126 95.7537 163.126L85.2077 163.033Z" fill="#1B5F2C"/>
<path d="M290.621 233.17C290.967 232.395 291.218 231.581 291.367 230.745C292.114 226.548 292.767 222.351 293.514 218.154C293.514 217.315 293.981 217.035 294.821 217.035C296.157 217.128 297.498 217.128 298.834 217.035C299.767 217.035 300.14 217.035 299.954 218.341C299.3 221.232 298.74 224.217 298.18 227.108L296.221 236.435L294.541 244.736C294.497 245.357 294.497 245.98 294.541 246.601C294.541 247.534 294.074 247.907 293.234 247.907C291.524 247.813 289.811 247.813 288.101 247.907C287.261 247.907 286.981 247.907 286.888 246.694C286.421 241.938 285.861 237.367 285.395 232.424V231.678C285.105 232.315 284.856 232.969 284.648 233.637L282.968 244.176C282.968 244.922 282.968 245.668 282.968 246.414C282.968 247.161 282.968 248 280.915 248C279.735 247.907 278.549 247.907 277.368 248C276.528 248 276.249 248 276.435 246.881C277.088 243.803 277.648 240.818 278.302 237.554L279.982 229.16C280.635 226.269 281.288 223.284 281.848 220.393C281.901 219.71 281.901 219.024 281.848 218.341C281.846 218.177 281.88 218.014 281.947 217.865C282.015 217.715 282.114 217.582 282.239 217.475C282.364 217.368 282.51 217.29 282.669 217.247C282.827 217.203 282.993 217.194 283.155 217.222H288.474C289.221 217.222 289.408 217.222 289.501 218.247C289.968 222.911 290.528 227.574 290.994 232.238C291.039 232.609 291.039 232.985 290.994 233.357L290.621 233.17Z" fill="#1B5F2C"/>
<path d="M103.873 71.1636H93.3273C92.0207 71.1636 91.9274 71.1636 92.2073 69.7646C92.8606 66.78 93.4206 63.7954 94.0739 60.4378C94.7272 57.0801 95.2871 54.9349 95.8471 52.2302C95.853 52.0301 95.9049 51.8341 95.9987 51.6572C96.0925 51.4804 96.2258 51.3275 96.3881 51.2103C96.5505 51.0931 96.7376 51.0148 96.9351 50.9814C97.1326 50.948 97.3351 50.9604 97.527 51.0177H118.526C119.832 51.0177 120.019 51.0177 119.739 52.51L116.379 67.9925C115.819 70.7905 115.819 70.7905 112.926 70.7905L103.873 71.1636Z" fill="#1B5F2C"/>
<path d="M354.643 216.755C356.603 216.755 358.563 216.755 360.523 216.755C361.634 216.904 362.709 217.252 363.696 217.781C364.365 218.24 364.894 218.875 365.223 219.616C365.553 220.357 365.67 221.175 365.563 221.978C365.694 224.193 365.175 226.397 364.069 228.32C363.221 229.479 362.216 230.515 361.083 231.398C360.43 231.865 360.243 232.144 361.083 232.611C361.773 232.968 362.318 233.555 362.624 234.269C362.931 234.983 362.98 235.782 362.763 236.528C362.763 239.233 361.923 242.031 361.55 244.736V245.668C361.55 247.254 361.55 247.254 360.15 247.254H354.643C353.43 247.254 353.15 247.254 353.337 245.668C353.523 244.083 354.083 242.497 354.27 240.912C354.408 239.578 354.408 238.234 354.27 236.901C354.283 236.653 354.244 236.404 354.155 236.172C354.066 235.939 353.929 235.728 353.753 235.552C353.577 235.376 353.366 235.239 353.133 235.15C352.901 235.061 352.652 235.022 352.403 235.036C350.07 235.036 349.977 235.036 349.51 237.088C349.044 239.14 348.204 242.964 347.737 245.855C347.737 246.788 347.27 247.254 346.337 247.254C344.752 247.161 343.163 247.161 341.578 247.254C340.831 247.254 340.458 247.254 340.644 246.135C341.578 241.844 342.417 237.554 343.351 233.264C344.284 228.973 344.937 225.149 345.777 221.139C345.777 219.926 345.777 218.714 346.524 217.501C347.27 216.289 347.364 216.569 348.017 216.569H354.643V216.755ZM354.643 229.626C355.385 229.764 356.151 229.608 356.779 229.19C357.406 228.771 357.846 228.125 358.003 227.388C358.355 226.524 358.575 225.612 358.656 224.683C358.656 222.911 358.656 222.258 356.51 221.885H354.643C354.433 221.811 354.208 221.788 353.988 221.818C353.767 221.848 353.556 221.93 353.374 222.058C353.191 222.185 353.042 222.355 352.938 222.552C352.834 222.749 352.779 222.968 352.777 223.191C352.777 224.683 352.123 226.175 351.75 227.668C351.377 229.16 351.937 229.626 353.99 229.626H354.643Z" fill="#1B5F2C"/>
<path d="M213.346 247.254C212.444 247.207 211.541 247.207 210.639 247.254C209.613 247.254 209.24 246.788 209.426 245.948C209.613 245.109 210.08 242.684 210.36 241.098C210.451 239.794 210.451 238.485 210.36 237.181C210.36 235.782 209.706 235.129 208.306 235.036H207.093C206.939 235.009 206.781 235.015 206.629 235.054C206.477 235.092 206.335 235.162 206.212 235.259C206.089 235.355 205.987 235.477 205.914 235.615C205.841 235.753 205.797 235.906 205.786 236.062C205.133 239.326 204.387 242.684 203.733 246.041C203.733 246.881 203.267 247.254 202.427 247.254C200.842 247.161 199.252 247.161 197.667 247.254C196.827 247.254 196.547 247.254 196.734 246.041C197.48 242.87 198.134 239.699 198.694 236.715C199.254 233.73 199.814 231.025 200.467 228.227C201.12 225.429 201.68 222.445 202.24 219.646V218.434C202.24 216.755 202.24 216.755 204.2 216.755C207.84 216.755 211.573 216.755 215.213 216.755C218.852 216.755 220.346 218.714 220.346 222.071C220.461 224.553 219.774 227.006 218.386 229.067C217.597 229.993 216.686 230.809 215.679 231.492C215.119 231.492 215.026 232.144 215.679 232.517C216.401 232.894 216.972 233.507 217.295 234.255C217.618 235.002 217.673 235.838 217.452 236.621C216.986 239.326 216.612 241.938 216.239 244.642C216.193 245.045 216.193 245.452 216.239 245.855C216.239 246.974 216.239 247.254 215.119 247.254C214.528 247.229 213.937 247.229 213.346 247.254ZM209.52 229.626C210.058 229.652 210.595 229.567 211.099 229.375C211.603 229.184 212.062 228.891 212.447 228.515C212.832 228.139 213.136 227.687 213.339 227.188C213.542 226.689 213.639 226.154 213.626 225.616C213.626 222.631 213.626 222.071 210.639 221.792C209.613 221.792 209.053 221.792 208.866 223.004C208.68 224.217 208.213 226.082 207.84 227.668C207.466 229.253 207.653 229.626 209.52 229.626Z" fill="#1B5F2C"/>
<path d="M187.588 244.829L186.281 246.041C184.855 247.181 183.108 247.848 181.284 247.948C179.461 248.048 177.651 247.578 176.108 246.601C175.561 246.129 175.126 245.541 174.835 244.879C174.545 244.217 174.406 243.499 174.428 242.777C174.602 240.305 174.913 237.845 175.362 235.409C175.828 232.424 176.575 229.44 177.228 226.082C177.559 223.117 178.835 220.338 180.868 218.154C181.85 217.261 182.998 216.571 184.247 216.123C185.496 215.675 186.822 215.478 188.148 215.543C190.108 215.371 192.082 215.626 193.934 216.289C194.828 216.568 195.61 217.126 196.164 217.881C196.719 218.636 197.016 219.549 197.014 220.486C197.156 222.037 197.156 223.598 197.014 225.149C197.014 226.082 196.36 226.455 195.427 226.362H191.134C189.921 226.362 189.827 226.362 190.107 225.056C190.153 224.497 190.153 223.936 190.107 223.377C190.107 221.698 190.107 221.139 188.801 220.766C188.234 220.632 187.641 220.667 187.094 220.865C186.546 221.064 186.069 221.419 185.721 221.885C185.075 223.185 184.604 224.565 184.321 225.989C183.574 229.067 183.015 232.051 182.361 235.316C182.361 236.621 181.895 237.834 181.615 239.14C181.335 240.445 181.615 241.844 182.641 242.217C183.36 242.533 184.174 242.554 184.907 242.275C185.641 241.995 186.235 241.439 186.561 240.725C187.002 239.415 187.345 238.075 187.588 236.715C187.588 235.968 187.121 235.689 186.468 235.689C185.814 235.689 185.161 235.689 185.534 234.383C185.735 233.552 185.891 232.712 186.001 231.865C186.013 231.669 186.063 231.477 186.15 231.3C186.236 231.124 186.356 230.966 186.504 230.836C186.651 230.706 186.823 230.606 187.009 230.543C187.195 230.479 187.391 230.453 187.588 230.466H194.494C195.52 230.466 195.894 230.466 195.614 231.865L193.934 240.072C193.467 242.031 193.094 243.896 192.814 245.762C192.534 247.627 192.254 247.067 191.321 247.067C190.544 247.021 189.764 247.021 188.987 247.067C188.241 247.067 187.774 247.067 187.868 245.948C187.83 245.563 187.736 245.186 187.588 244.829Z" fill="#1B5F2C"/>
<path d="M328.045 216.569C328.791 216.615 329.539 216.615 330.285 216.569C331.125 216.569 331.498 216.569 331.312 217.781C330.752 220.672 330.192 223.564 329.538 226.455C328.885 229.346 328.325 232.331 327.765 235.222C327.205 238.114 327.112 238.393 326.832 239.979C326.705 240.389 326.7 240.827 326.816 241.241C326.932 241.654 327.164 242.026 327.485 242.311C327.936 242.582 328.452 242.726 328.978 242.726C329.505 242.726 330.021 242.582 330.472 242.311C331.164 241.658 331.706 240.862 332.058 239.979C332.711 237.647 333.085 235.129 333.551 232.704C334.018 230.279 334.858 226.828 335.418 223.844L336.538 218.341C336.538 217.035 336.538 216.755 338.311 216.755H342.604C343.444 216.755 343.817 216.755 343.537 217.968L340.738 231.492C340.738 234.01 339.711 236.528 339.244 239.046C338.996 241.547 337.846 243.873 336.009 245.589C334.171 247.305 331.772 248.295 329.258 248.373C327.274 248.582 325.268 248.36 323.379 247.72C322.231 247.341 321.251 246.576 320.604 245.556C319.958 244.536 319.685 243.323 319.832 242.124C320.068 239.587 320.442 237.065 320.952 234.569C321.512 231.585 322.259 228.6 322.912 225.243C323.565 221.885 323.845 220.113 324.405 217.595C324.506 217.389 324.649 217.207 324.827 217.063C325.004 216.918 325.21 216.813 325.432 216.755C326.302 216.708 327.175 216.708 328.045 216.755V216.569Z" fill="#1B5F2C"/>
<path d="M388.894 237.181H390.948C391.881 237.181 392.161 237.181 391.974 238.393V239.606C391.846 240.107 391.876 240.636 392.06 241.12C392.244 241.604 392.572 242.02 393.001 242.311C393.533 242.551 394.123 242.634 394.702 242.552C395.28 242.469 395.823 242.224 396.267 241.844C396.702 241.468 397.051 241.002 397.29 240.479C397.529 239.956 397.653 239.388 397.653 238.813C397.653 238.238 397.529 237.67 397.29 237.147C397.051 236.624 396.702 236.158 396.267 235.782L391.974 233.17C390.536 232.148 389.48 230.676 388.973 228.987C388.465 227.298 388.536 225.488 389.174 223.844C389.45 222.477 390.03 221.189 390.869 220.075C391.709 218.961 392.788 218.05 394.027 217.408C396.391 216.328 399.021 215.971 401.587 216.382C402.455 216.425 403.301 216.666 404.062 217.086C404.822 217.506 405.476 218.095 405.973 218.807C406.536 219.717 406.909 220.732 407.07 221.79C407.23 222.847 407.175 223.927 406.906 224.963C406.792 225.185 406.634 225.383 406.441 225.543C406.249 225.703 406.026 225.823 405.787 225.895C404.293 225.895 402.8 225.895 401.307 225.895C399.814 225.895 400.374 225.895 400.467 224.963C400.56 224.03 400.467 224.217 400.467 223.844C400.494 223.359 400.364 222.879 400.094 222.475C399.825 222.071 399.432 221.766 398.974 221.605C398.515 221.441 398.016 221.425 397.547 221.559C397.078 221.693 396.664 221.97 396.361 222.351C396.027 222.631 395.759 222.981 395.575 223.376C395.391 223.771 395.295 224.201 395.295 224.636C395.295 225.072 395.391 225.502 395.575 225.897C395.759 226.292 396.027 226.641 396.361 226.921C397.587 227.989 398.898 228.956 400.28 229.813C401.682 230.502 402.817 231.634 403.509 233.034C404.201 234.434 404.411 236.023 404.107 237.554C404.096 239.372 403.66 241.162 402.833 242.781C402.007 244.401 400.813 245.805 399.347 246.881C397.488 247.953 395.38 248.518 393.234 248.518C391.088 248.518 388.98 247.953 387.121 246.881C386.464 246.459 385.923 245.88 385.548 245.196C385.173 244.511 384.976 243.744 384.975 242.964C384.975 241.564 384.975 240.072 385.535 238.673C386.095 237.274 386.095 237.367 387.121 237.461L388.894 237.181Z" fill="#1B5F2C"/>
<path d="M171.069 231.958C171.069 236.621 171.069 241.285 171.069 245.855C171.069 246.881 171.069 247.254 169.669 247.254C168.177 247.16 166.681 247.16 165.189 247.254C164.163 247.254 163.883 247.254 163.976 245.855C164.069 244.456 163.976 243.616 163.976 242.497C163.976 241.378 163.976 241.098 162.763 241.098C161.551 241.005 160.334 241.005 159.123 241.098C158.804 241.188 158.508 241.342 158.251 241.55C157.994 241.759 157.783 242.017 157.63 242.311C157.066 243.58 156.599 244.889 156.23 246.228C156.219 246.372 156.178 246.512 156.11 246.639C156.041 246.766 155.946 246.877 155.832 246.965C155.717 247.053 155.586 247.116 155.445 247.15C155.305 247.184 155.159 247.187 155.017 247.161C153.337 247.161 151.75 247.161 150.07 247.161C148.39 247.161 148.95 247.161 149.417 245.948C151.003 242.124 152.59 238.393 154.27 234.569L159.59 222.071C160.243 220.672 160.803 219.273 161.363 217.781C161.49 217.372 161.754 217.018 162.111 216.78C162.468 216.542 162.896 216.435 163.323 216.475C165.283 216.475 167.242 216.475 169.109 216.475C170.976 216.475 170.509 216.475 170.509 217.781C170.509 222.445 170.509 227.108 170.509 231.865L171.069 231.958ZM165.096 223.844C165.096 223.844 165.096 224.59 164.443 225.056C163.416 228.041 162.389 231.025 161.269 234.383C160.15 237.74 160.43 236.901 162.949 236.901C164.443 236.901 164.629 236.901 164.723 235.316C164.723 231.958 165.189 228.693 165.376 225.336C165.378 224.825 165.283 224.319 165.096 223.844Z" fill="#1B5F2C"/>
<path d="M262.623 247.254C260.196 247.254 257.863 247.254 255.437 247.254C254.503 247.254 254.223 247.254 254.41 246.041L256.09 238.114C256.743 234.942 257.303 231.865 257.956 228.787C258.61 225.709 259.17 223.284 259.73 220.486C259.93 219.593 260.086 218.69 260.196 217.781C260.264 217.444 260.454 217.143 260.729 216.937C261.005 216.73 261.347 216.632 261.69 216.662H275.409C276.715 216.662 276.809 216.662 276.529 218.061C276.249 219.46 276.062 220.113 275.875 221.139C275.689 222.165 275.222 222.445 274.195 222.445H267.849C266.823 222.445 266.263 222.445 266.076 223.75C265.889 225.056 265.516 226.175 265.329 227.388C265.143 228.6 265.796 228.507 266.543 228.507H272.609C274.102 228.507 274.195 228.507 273.822 230.093C273.449 231.678 273.355 232.051 273.169 233.077C272.982 234.103 272.516 234.569 271.396 234.476H265.329C263.836 234.476 263.649 234.476 263.369 236.155C263.089 237.834 263.369 238.673 262.716 239.979C262.063 241.285 262.716 241.378 263.929 241.378H270.649C271.862 241.378 272.049 241.378 271.862 242.777C271.713 244.069 271.463 245.348 271.116 246.601C270.967 246.785 270.783 246.938 270.575 247.05C270.367 247.162 270.138 247.231 269.902 247.254H262.623Z" fill="#1B5F2C"/>
<path d="M372.656 247.254H365.563C364.256 247.254 364.163 247.254 364.443 245.855C365.003 243.057 365.656 240.259 366.216 237.461C366.776 234.663 367.336 231.678 367.989 228.787L369.669 220.486L370.229 217.874C370.227 217.686 370.266 217.499 370.343 217.328C370.42 217.156 370.533 217.002 370.675 216.878C370.817 216.754 370.984 216.662 371.165 216.609C371.346 216.555 371.536 216.542 371.722 216.569H385.255C386.841 216.569 386.841 216.569 386.468 218.061L385.908 221.232C385.885 221.404 385.828 221.57 385.74 221.72C385.653 221.87 385.536 222.001 385.397 222.105C385.258 222.209 385.099 222.285 384.931 222.327C384.762 222.369 384.587 222.378 384.415 222.351H377.882C376.762 222.351 376.202 222.351 376.015 223.75C375.829 225.149 376.015 226.175 375.362 227.294C374.709 228.414 375.829 228.414 376.482 228.414H382.642C384.041 228.414 384.135 228.414 383.761 229.906C383.388 231.398 383.201 232.144 383.015 233.357C382.992 233.517 382.938 233.671 382.855 233.81C382.771 233.948 382.661 234.069 382.531 234.164C382.401 234.26 382.252 234.329 382.095 234.366C381.938 234.404 381.774 234.409 381.615 234.383H375.175C373.775 234.383 373.589 234.383 373.309 235.968C373.029 237.554 373.309 238.3 372.656 239.513C372.002 240.725 372.656 241.285 374.149 241.285H380.588C381.895 241.285 382.082 241.285 381.895 242.87C381.708 244.456 381.335 245.202 381.148 246.414C380.962 247.627 380.402 247.161 379.748 247.161H372.562L372.656 247.254Z" fill="#1B5F2C"/>
<path d="M243.211 236.994C243.211 236.062 243.957 235.222 244.237 234.29C245.637 230.652 247.037 227.108 248.344 223.47C249.09 221.419 249.93 219.46 250.677 217.501C250.723 217.221 250.874 216.969 251.099 216.795C251.325 216.622 251.607 216.541 251.89 216.569C253.506 216.662 255.127 216.662 256.743 216.569C257.583 216.569 257.863 216.569 257.49 217.688L249.744 235.875L245.451 246.041C245.343 246.419 245.107 246.746 244.783 246.968C244.459 247.189 244.068 247.291 243.677 247.254C241.624 247.254 239.664 247.254 237.704 247.254C235.745 247.254 236.491 247.254 236.491 246.041C236.491 236.715 236.491 227.388 236.491 218.061C236.491 216.662 236.491 216.569 238.078 216.662H242.651C243.491 216.662 243.677 216.662 243.677 217.781C243.677 223.75 243.677 229.719 243.024 235.689C242.979 236.091 242.979 236.498 243.024 236.901L243.211 236.994Z" fill="#1B5F2C"/>
<path d="M312.179 216.662H320.112C321.325 216.662 321.512 216.662 321.325 217.968C321.145 219.231 320.864 220.479 320.485 221.698C320.395 221.875 320.263 222.027 320.1 222.141C319.938 222.255 319.749 222.327 319.552 222.351C318.372 222.445 317.186 222.445 316.006 222.351C315.782 222.325 315.556 222.346 315.341 222.414C315.127 222.482 314.929 222.594 314.761 222.744C314.593 222.894 314.46 223.078 314.368 223.284C314.277 223.489 314.231 223.712 314.233 223.937C313.113 229.44 311.899 234.942 310.779 240.445C310.779 242.124 310.126 243.896 309.846 245.668C309.566 247.44 309.38 247.161 307.98 247.254C306.58 247.347 305.086 247.254 303.593 247.254C302.1 247.254 302.473 247.254 302.66 246.041C303.593 242.031 304.34 237.927 305.18 233.917C306.02 229.906 306.393 228.041 307.046 225.149C307.7 222.258 307.513 222.351 304.9 222.351H302.94C302.287 222.351 302.007 222.351 302.1 221.325C302.322 219.969 302.634 218.63 303.033 217.315C303.033 217.315 303.78 216.662 304.153 216.662C306.86 216.569 309.566 216.662 312.179 216.662Z" fill="#1B5F2C"/>
<path d="M223.985 247.254C223.177 247.207 222.367 247.207 221.559 247.254C220.812 247.254 220.532 247.254 220.719 246.228L223.052 233.17C223.799 229.253 224.732 225.336 225.572 221.419C225.572 220.206 225.572 219.087 226.225 217.874C226.878 216.662 226.785 216.848 227.625 216.848C229.241 216.942 230.862 216.942 232.478 216.848C233.225 216.848 233.411 216.848 233.225 217.968C232.291 222.351 231.451 226.735 230.518 231.118C229.585 235.502 228.745 239.14 227.905 243.243C227.905 244.269 227.438 245.388 227.252 246.508C227.065 247.627 226.785 247.534 226.038 247.534C225.359 247.409 224.674 247.316 223.985 247.254Z" fill="#1B5F2C"/>
</g>
<defs>
<clipPath id="clip0_28_5">
<rect width="407" height="248" fill="white"/>
</clipPath>
</defs>
</svg>
